<?xml version="1.0" encoding="utf-8"?>
<!-- Generator: Adobe Illustrator 15.0.0, SVG Export Plug-In . SVG Version: 6.00 Build 0)  -->
<!DOCTYPE svg PUBLIC "-//W3C//DTD SVG 1.1//EN" "http://www.w3.org/Graphics/SVG/1.1/DTD/svg11.dtd">
<svg version="1.1" id="Layer_1" xmlns="http://www.w3.org/2000/svg" xmlns:xlink="http://www.w3.org/1999/xlink" x="0px" y="0px"
	 width="100px" height="100px" viewBox="0 0 100 100" enable-background="new 0 0 100 100" xml:space="preserve">
<g>
	<g>
		<path d="M32.137,18.42c-16.042,8.164-16.896,25.226-9.09,39.825C29.707,70.7,44.304,83.689,59.396,82.04
			c20.043-2.19,22.522-32.004,17.661-46.649c-3.892-11.721-13.638-18.7-25.225-21.483c-10.06-2.417-20.555,0.352-24.075,10.774
			c-0.18,0.662-0.293,1.335-0.339,2.021c-0.605,5.108,2.279,10.031,7.061,12.059c3.926,1.666,9.859,0.428,10.457-4.612
			c0.087-0.735,0.932-2.646-0.052-1.415c0.321-0.402,1.217-1.035,1.396-1.077c2.713-0.632,4.751-0.209,7.721,0.504
			c1.351,0.325,3.332,1.186,4.053,1.86c2.124,1.986,2.91,5.196,3.231,8.357c0.635,6.241-0.728,13.204-3.44,18.121
			c-0.259,0.448-0.536,0.885-0.833,1.309c0.587-0.694,0.575-0.693-0.036,0.004c-0.438,0.491-3.056,2.302-1.263,1.255
			c-0.578,0.338-3.482,1.146-1.354,0.695c-0.649,0.138-3.767,0.063-1.453,0.23c-0.861-0.063-1.711-0.247-2.55-0.441
			c2.412,0.558-0.987-0.442-1.598-0.713c-2.486-1.104,0.426,0.369-1.008-0.506c-1.087-0.662-2.108-1.427-3.112-2.206
			c-2.286-1.775,0.308,0.392-0.963-0.821c-0.968-0.924-1.862-1.922-2.735-2.935c-0.348-0.411-0.687-0.828-1.018-1.252
			c-1.697-2.128,1.209,1.796-0.312-0.451c-0.744-1.101-1.398-2.259-2.024-3.429c-1.265-2.367-0.021,0.203-0.59-1.239
			c-0.461-1.169-0.805-2.38-1.108-3.599c0.544,2.188-0.073-0.76-0.116-1.251c-0.034-0.471-0.051-0.942-0.052-1.414
			c-0.043-2.305-0.239,1.721,0.068-0.537c0.054-0.394,0.846-3.156,0.164-1.298c0.405-1.102,1.01-2.115,1.654-3.088
			c-0.865,1.306,1.268-1.214,1.755-1.633c1.388-1.196,0.852-0.747,2.575-1.624C51.901,30.486,41.148,13.834,32.137,18.42
			L32.137,18.42z"/>
	</g>
</g>
</svg>
