<?xml version="1.0" encoding="utf-8"?>
<svg version="1.1" id="Layer_1" xmlns="http://www.w3.org/2000/svg" xmlns:xlink="http://www.w3.org/1999/xlink">
<g>
	<g>
		<path d="M33.654,29.819c-1.236-0.575-5.494-3.758-3.083-1.564c1.462,1.33,2.767,2.803,4.07,4.287
			c3.435,3.911,6.518,8.131,9.575,12.338c5.944,8.181,11.626,16.454,18.719,23.703c3.938,4.024,9.835,7.294,15.08,9.225
			c4.305,1.585,4.784,0.017,1.834-2.998c-8.073-8.252-14.052-18.605-21.066-27.727c-9.015-11.723-20.178-21.244-33.653-27.51
			c-1.121-0.521-8.972-3.487-5.6,0.561C23.079,24.394,28.709,27.52,33.654,29.819L33.654,29.819z"/>
	</g>
</g>
<g>
	<g>
		<path d="M59.78,24.004c-16.301,18.105-31.932,36.109-43,58c-1.479,2.927,8.623,0.335,9.293,0.144
			c3.543-1.01,12.03-3.004,13.929-6.759c11.067-21.892,26.698-39.896,43-58c2.041-2.267-8.932-0.247-9.293-0.144
			C69.105,18.557,63.106,20.31,59.78,24.004L59.78,24.004z"/>
	</g>
</g>
</svg>
